<svg xmlns="http://www.w3.org/2000/svg" width="1200" height="628" viewBox="0 0 1200 628">
  <rect width="1200" height="628" fill="#fff"/>
  <rect width="480" height="628" fill="#171717"/>
  <rect x="56" y="56" width="44" height="44" rx="13" fill="#fff"/><text x="78" y="84" text-anchor="middle" font-family="Inter,Arial" font-size="15" font-weight="900" fill="#101828">SP</text><text x="116" y="86" font-family="Inter,Arial" font-size="22" font-weight="900" fill="#fff">SalaoPremium</text>
  <text x="56" y="150" font-family="Inter,Arial" font-size="42" font-weight="900" fill="#fff"><tspan x="56" dy="0">Sistema para salao</tspan><tspan x="56" dy="48">que agenda, vende</tspan><tspan x="56" dy="48">e fecha comissao.</tspan></text>
  <text x="60" y="330" font-family="Inter,Arial" font-size="22" font-weight="600" fill="#d0d5dd"><tspan x="60" dy="0">Recepcao no computador.</tspan><tspan x="60" dy="30">Profissional no celular.</tspan><tspan x="60" dy="30">Dono vendo os numeros.</tspan></text>
  <rect x="56" y="496" width="224" height="44" rx="22" fill="#fff"/><text x="168" y="524" text-anchor="middle" font-family="Inter,Arial" font-size="15" font-weight="900" fill="#101828">Conhecer agora</text>
  <rect x="520" y="70" width="560" height="420" rx="28" fill="#f8fafc"/><rect x="520" y="70" width="160" height="420" rx="28" fill="#111827"/>
  <text x="546" y="110" font-family="Inter,Arial" font-size="18" font-weight="900" fill="#fff">SalaoPremium</text><text x="712" y="114" font-family="Inter,Arial" font-size="22" font-weight="900" fill="#101828">Atelie Bella Studio</text><text x="712" y="140" font-family="Inter,Arial" font-size="14" fill="#667085">Operacao de hoje</text>
  <rect x="712" y="168" width="132" height="94" rx="18" fill="#eef6ff" stroke="#d0d5dd"/><text x="734" y="198" font-family="Inter,Arial" font-size="12" font-weight="800" fill="#667085">AGENDA</text><text x="734" y="238" font-family="Inter,Arial" font-size="30" font-weight="900" fill="#101828">26</text>
  <rect x="864" y="168" width="168" height="94" rx="18" fill="#ecfdf3" stroke="#d0d5dd"/><text x="886" y="198" font-family="Inter,Arial" font-size="12" font-weight="800" fill="#667085">CAIXA</text><text x="886" y="238" font-family="Inter,Arial" font-size="28" font-weight="900" fill="#101828">R$ 4.280</text>
  <rect x="712" y="292" width="332" height="150" rx="24" fill="#fff" stroke="#e4e7ec"/><text x="736" y="328" font-family="Inter,Arial" font-size="20" font-weight="900" fill="#101828">Agenda por profissional</text><text x="736" y="366" font-family="Inter,Arial" font-size="15" fill="#667085">Marina Costa · 09:00 · Confirmado</text><text x="736" y="398" font-family="Inter,Arial" font-size="15" fill="#667085">Bianca Alves · 10:30 · Em atendimento</text>
  <rect x="998" y="116" width="170" height="300" rx="36" fill="#101828"/><rect x="1008" y="126" width="150" height="280" rx="28" fill="#fff"/><text x="1030" y="164" font-family="Inter,Arial" font-size="12" fill="#667085">Hoje</text><text x="1030" y="190" font-family="Inter,Arial" font-size="22" font-weight="900" fill="#101828">Camila</text><rect x="1028" y="224" width="108" height="36" rx="13" fill="#f8fafc" stroke="#e4e7ec"/><text x="1082" y="248" text-anchor="middle" font-family="Inter,Arial" font-size="11" font-weight="800" fill="#101828">09:00 Marina</text><rect x="1028" y="274" width="108" height="36" rx="13" fill="#fff7ed" stroke="#e4e7ec"/><text x="1082" y="298" text-anchor="middle" font-family="Inter,Arial" font-size="11" font-weight="800" fill="#101828">10:30 Bianca</text><rect x="1028" y="336" width="108" height="34" rx="17" fill="#101828"/><text x="1082" y="358" text-anchor="middle" font-family="Inter,Arial" font-size="12" font-weight="900" fill="#fff">R$ 328 hoje</text>
  <text x="536" y="546" font-family="Inter,Arial" font-size="26" font-weight="900" fill="#101828">Agenda + caixa + comanda + comissao</text>
</svg>
