<svg xmlns="http://www.w3.org/2000/svg" width="1080" height="1080" viewBox="0 0 1080 1080">
  <rect width="1080" height="1080" fill="#f5f1eb"/>
  <rect width="1080" height="330" fill="#171717"/>
  <circle cx="930" cy="70" r="180" fill="#c7a25c" opacity=".2"/>
  <rect x="72" y="64" width="44" height="44" rx="13" fill="#fff"/>
  <text x="94" y="92" text-anchor="middle" font-family="Inter,Arial" font-size="15" font-weight="800" fill="#101828">SP</text>
  <text x="132" y="93" font-family="Inter,Arial" font-size="22" font-weight="800" fill="#fff">SalaoPremium</text>
  <text x="72" y="170" font-family="Inter,Arial" font-size="58" font-weight="900" fill="#fff">
    <tspan x="72" dy="0">Agenda, caixa e</tspan>
    <tspan x="72" dy="64">comissao em uma</tspan>
    <tspan x="72" dy="64">operacao premium.</tspan>
  </text>
  <text x="76" y="306" font-family="Inter,Arial" font-size="24" font-weight="600" fill="#d0d5dd">Comanda, pagamento e comissao no mesmo fluxo.</text>

  <rect x="80" y="402" width="760" height="520" rx="30" fill="#101828" opacity=".10"/>
  <rect x="92" y="382" width="760" height="520" rx="28" fill="#f8fafc"/>
  <rect x="92" y="382" width="178" height="520" rx="28" fill="#111827"/>
  <text x="114" y="421" font-family="Inter,Arial" font-size="18" font-weight="800" fill="#fff">SalaoPremium</text>
  <rect x="110" y="492" width="138" height="36" rx="12" fill="#fff" opacity=".14"/>
  <text x="114" y="470" font-family="Inter,Arial" font-size="13" fill="#cbd5e1">Dashboard</text>
  <text x="114" y="516" font-family="Inter,Arial" font-size="13" font-weight="700" fill="#fff">Agenda</text>
  <text x="114" y="560" font-family="Inter,Arial" font-size="13" fill="#cbd5e1">Clientes</text>
  <text x="114" y="604" font-family="Inter,Arial" font-size="13" fill="#cbd5e1">Caixa</text>
  <text x="114" y="648" font-family="Inter,Arial" font-size="13" fill="#cbd5e1">Comissoes</text>
  <text x="300" y="425" font-family="Inter,Arial" font-size="20" font-weight="900" fill="#101828">Atelie Bella Studio</text>
  <text x="300" y="447" font-family="Inter,Arial" font-size="13" fill="#667085">Operacao de hoje</text>
  <g font-family="Inter,Arial">
    <rect x="300" y="470" width="135" height="104" rx="18" fill="#eef6ff" stroke="#d0d5dd"/>
    <text x="318" y="496" font-size="12" font-weight="800" fill="#667085">AGENDA</text>
    <text x="318" y="540" font-size="32" font-weight="900" fill="#101828">26</text>
    <rect x="452" y="470" width="172" height="104" rx="18" fill="#ecfdf3" stroke="#d0d5dd"/>
    <text x="470" y="496" font-size="12" font-weight="800" fill="#667085">CAIXA</text>
    <text x="470" y="540" font-size="30" font-weight="900" fill="#101828">R$ 4.280</text>
    <rect x="642" y="470" width="172" height="104" rx="18" fill="#fff7ed" stroke="#d0d5dd"/>
    <text x="660" y="496" font-size="12" font-weight="800" fill="#667085">COMISSAO</text>
    <text x="660" y="540" font-size="30" font-weight="900" fill="#101828">R$ 892</text>
  </g>
  <rect x="300" y="600" width="500" height="242" rx="24" fill="#fff" stroke="#e4e7ec"/>
  <text x="324" y="636" font-family="Inter,Arial" font-size="20" font-weight="900" fill="#101828">Agenda por profissional</text>
  <g font-family="Inter,Arial" font-size="13">
    <rect x="324" y="664" width="452" height="38" rx="12" fill="#f8fafc" stroke="#e4e7ec"/><text x="340" y="687" font-weight="800" fill="#344054">09:00</text><text x="402" y="682" font-weight="800" fill="#101828">Marina Costa</text><text x="402" y="696" font-size="10" fill="#667085">Coloracao premium</text><rect x="640" y="672" width="116" height="22" rx="11" fill="#ecfdf3"/><text x="698" y="687" text-anchor="middle" font-size="10" font-weight="800" fill="#027a48">Confirmado</text>
    <rect x="324" y="710" width="452" height="38" rx="12" fill="#f8fafc" stroke="#e4e7ec"/><text x="340" y="733" font-weight="800" fill="#344054">10:30</text><text x="402" y="728" font-weight="800" fill="#101828">Bianca Alves</text><text x="402" y="742" font-size="10" fill="#667085">Escova + finalizacao</text><rect x="630" y="718" width="126" height="22" rx="11" fill="#fff7ed"/><text x="693" y="733" text-anchor="middle" font-size="10" font-weight="800" fill="#b54708">Em atendimento</text>
    <rect x="324" y="756" width="452" height="38" rx="12" fill="#f8fafc" stroke="#e4e7ec"/><text x="340" y="779" font-weight="800" fill="#344054">11:40</text><text x="402" y="774" font-weight="800" fill="#101828">Paula Reis</text><text x="402" y="788" font-size="10" fill="#667085">Corte + hidratacao</text><rect x="630" y="764" width="126" height="22" rx="11" fill="#f4f3ff"/><text x="693" y="779" text-anchor="middle" font-size="10" font-weight="800" fill="#5925dc">Pronto caixa</text>
    <rect x="324" y="802" width="452" height="38" rx="12" fill="#f8fafc" stroke="#e4e7ec"/><text x="340" y="825" font-weight="800" fill="#344054">14:20</text><text x="402" y="820" font-weight="800" fill="#101828">Luciana Prado</text><text x="402" y="834" font-size="10" fill="#667085">Luzes + toner</text><rect x="640" y="810" width="116" height="22" rx="11" fill="#ecfdf3"/><text x="698" y="825" text-anchor="middle" font-size="10" font-weight="800" fill="#027a48">Confirmado</text>
  </g>
  <rect x="785" y="458" width="168" height="366" rx="36" fill="#101828"/>
  <rect x="795" y="468" width="148" height="346" rx="28" fill="#fff"/>
  <text x="815" y="498" font-family="Inter,Arial" font-size="12" fill="#667085">Hoje</text>
  <text x="815" y="524" font-family="Inter,Arial" font-size="22" font-weight="900" fill="#101828">Camila</text>
  <g font-family="Inter,Arial" font-size="11">
    <rect x="813" y="556" width="112" height="42" rx="14" fill="#f8fafc" stroke="#e4e7ec"/><text x="826" y="581" font-weight="800" fill="#344054">09:00</text><text x="870" y="576" font-weight="800" fill="#101828">Marina</text>
    <rect x="813" y="612" width="112" height="42" rx="14" fill="#fff7ed" stroke="#e4e7ec"/><text x="826" y="637" font-weight="800" fill="#344054">10:30</text><text x="870" y="632" font-weight="800" fill="#101828">Bianca</text>
    <rect x="813" y="668" width="112" height="42" rx="14" fill="#f8fafc" stroke="#e4e7ec"/><text x="826" y="693" font-weight="800" fill="#344054">13:30</text><text x="870" y="688" font-weight="800" fill="#101828">Paula</text>
    <rect x="813" y="724" width="112" height="42" rx="14" fill="#f8fafc" stroke="#e4e7ec"/><text x="826" y="749" font-weight="800" fill="#344054">16:00</text><text x="870" y="744" font-weight="800" fill="#101828">Renata</text>
  </g>
  <rect x="812" y="778" width="116" height="36" rx="18" fill="#101828"/>
  <text x="870" y="802" text-anchor="middle" font-family="Inter,Arial" font-size="13" font-weight="800" fill="#fff">R$ 328 hoje</text>
  <rect x="72" y="972" width="248" height="44" rx="22" fill="#101828"/>
  <text x="196" y="1000" text-anchor="middle" font-family="Inter,Arial" font-size="15" font-weight="800" fill="#fff">Criar conta do salao</text>
  <text x="350" y="1000" font-family="Inter,Arial" font-size="18" font-weight="600" fill="#667085">Dados de exemplo: Atelie Bella Studio | Sao Paulo</text>
</svg>
