<svg xmlns="http://www.w3.org/2000/svg" width="1600" height="900" viewBox="0 0 1600 900">
  <rect width="1600" height="900" fill="#f5f1eb"/>
  <circle cx="1320" cy="50" r="260" fill="#c7a25c" opacity=".2"/>
  <rect x="90" y="74" width="46" height="46" rx="14" fill="#101828"/><text x="113" y="104" text-anchor="middle" font-family="Inter,Arial" font-size="15" font-weight="900" fill="#fff">SP</text><text x="154" y="105" font-family="Inter,Arial" font-size="22" font-weight="900" fill="#101828">SalaoPremium</text>
  <text x="90" y="250" font-family="Inter,Arial" font-size="58" font-weight="900" fill="#101828"><tspan x="90" dy="0">A rotina do salao</tspan><tspan x="90" dy="64">inteira em uma</tspan><tspan x="90" dy="64">operacao premium.</tspan></text>
  <text x="94" y="440" font-family="Inter,Arial" font-size="24" font-weight="600" fill="#475467"><tspan x="94" dy="0">Mostre agenda cheia, recebimento organizado, app</tspan><tspan x="94" dy="34">profissional e indicadores sem parecer sistema generico.</tspan></text>
  <rect x="94" y="560" width="190" height="44" rx="22" fill="#101828"/><text x="189" y="588" text-anchor="middle" font-family="Inter,Arial" font-size="15" font-weight="900" fill="#fff">Criar conta</text>
  <rect x="306" y="560" width="170" height="44" rx="22" fill="#fff"/><text x="391" y="588" text-anchor="middle" font-family="Inter,Arial" font-size="15" font-weight="900" fill="#101828">Ver sistema</text>
  <rect x="730" y="120" width="760" height="520" rx="28" fill="#f8fafc"/><rect x="730" y="120" width="178" height="520" rx="28" fill="#111827"/><text x="764" y="164" font-family="Inter,Arial" font-size="18" font-weight="900" fill="#fff">SalaoPremium</text>
  <text x="940" y="170" font-family="Inter,Arial" font-size="22" font-weight="900" fill="#101828">Atelie Bella Studio</text><text x="940" y="198" font-family="Inter,Arial" font-size="14" fill="#667085">Operacao de hoje</text>
  <rect x="940" y="232" width="142" height="112" rx="20" fill="#eef6ff" stroke="#d0d5dd"/><text x="960" y="264" font-family="Inter,Arial" font-size="12" font-weight="800" fill="#667085">AGENDA</text><text x="960" y="312" font-family="Inter,Arial" font-size="34" font-weight="900" fill="#101828">26</text>
  <rect x="1100" y="232" width="182" height="112" rx="20" fill="#ecfdf3" stroke="#d0d5dd"/><text x="1120" y="264" font-family="Inter,Arial" font-size="12" font-weight="800" fill="#667085">CAIXA</text><text x="1120" y="312" font-family="Inter,Arial" font-size="32" font-weight="900" fill="#101828">R$ 4.280</text>
  <rect x="1300" y="232" width="158" height="112" rx="20" fill="#fff7ed" stroke="#d0d5dd"/><text x="1320" y="264" font-family="Inter,Arial" font-size="12" font-weight="800" fill="#667085">COMISSAO</text><text x="1320" y="312" font-family="Inter,Arial" font-size="32" font-weight="900" fill="#101828">R$ 892</text>
  <rect x="940" y="380" width="520" height="210" rx="24" fill="#fff" stroke="#e4e7ec"/><text x="966" y="420" font-family="Inter,Arial" font-size="22" font-weight="900" fill="#101828">Agenda por profissional</text><text x="966" y="464" font-family="Inter,Arial" font-size="16" fill="#667085">09:00 Marina Costa · Coloracao premium</text><text x="966" y="500" font-family="Inter,Arial" font-size="16" fill="#667085">10:30 Bianca Alves · Escova + finalizacao</text><text x="966" y="536" font-family="Inter,Arial" font-size="16" fill="#667085">11:40 Paula Reis · Pronto para caixa</text>
  <rect x="1260" y="330" width="210" height="360" rx="42" fill="#101828"/><rect x="1272" y="342" width="186" height="336" rx="34" fill="#fff"/><text x="1300" y="388" font-family="Inter,Arial" font-size="14" fill="#667085">Hoje</text><text x="1300" y="422" font-family="Inter,Arial" font-size="28" font-weight="900" fill="#101828">Camila</text><rect x="1298" y="470" width="132" height="46" rx="16" fill="#f8fafc" stroke="#e4e7ec"/><text x="1364" y="499" text-anchor="middle" font-family="Inter,Arial" font-size="13" font-weight="900" fill="#101828">09:00 Marina</text><rect x="1298" y="538" width="132" height="46" rx="16" fill="#fff7ed" stroke="#e4e7ec"/><text x="1364" y="567" text-anchor="middle" font-family="Inter,Arial" font-size="13" font-weight="900" fill="#101828">10:30 Bianca</text><rect x="1298" y="616" width="132" height="42" rx="21" fill="#101828"/><text x="1364" y="643" text-anchor="middle" font-family="Inter,Arial" font-size="14" font-weight="900" fill="#fff">R$ 328 hoje</text>
  <text x="94" y="820" font-family="Inter,Arial" font-size="18" font-weight="600" fill="#667085">Dados ficticios realistas para divulgacao: Marina, Bianca, Paula, Camila e Atelie Bella Studio.</text>
</svg>
