<svg xmlns="http://www.w3.org/2000/svg" width="1080" height="1920" viewBox="0 0 1080 1920">
  <rect width="1080" height="1920" fill="#101828"/>
  <rect y="1180" width="1080" height="740" fill="#f5f1eb"/>
  <circle cx="820" cy="150" r="220" fill="#c7a25c" opacity=".22"/>
  <rect x="72" y="76" width="46" height="46" rx="14" fill="#fff"/>
  <text x="95" y="106" text-anchor="middle" font-family="Inter,Arial" font-size="15" font-weight="900" fill="#101828">SP</text>
  <text x="136" y="106" font-family="Inter,Arial" font-size="22" font-weight="900" fill="#fff">SalaoPremium</text>
  <text x="72" y="230" font-family="Inter,Arial" font-size="70" font-weight="900" fill="#fff">
    <tspan x="72" dy="0">Agenda cheia.</tspan><tspan x="72" dy="78">Caixa limpo.</tspan><tspan x="72" dy="78">Equipe no controle.</tspan>
  </text>
  <text x="76" y="470" font-family="Inter,Arial" font-size="32" font-weight="600" fill="#d0d5dd">Um acesso para o salao operar como negocio de verdade.</text>
  <rect x="86" y="560" width="690" height="460" rx="30" fill="#f8fafc"/>
  <rect x="86" y="560" width="160" height="460" rx="30" fill="#111827"/>
  <text x="122" y="620" font-family="Inter,Arial" font-size="18" font-weight="900" fill="#fff">SalaoPremium</text>
  <text x="290" y="640" font-family="Inter,Arial" font-size="24" font-weight="900" fill="#101828">Atelie Bella Studio</text>
  <text x="290" y="672" font-family="Inter,Arial" font-size="16" fill="#667085">Operacao de hoje</text>
  <rect x="290" y="724" width="150" height="104" rx="18" fill="#eef6ff" stroke="#d0d5dd"/><text x="316" y="758" font-family="Inter,Arial" font-size="14" font-weight="800" fill="#667085">AGENDA</text><text x="316" y="804" font-family="Inter,Arial" font-size="34" font-weight="900" fill="#101828">26</text>
  <rect x="464" y="724" width="190" height="104" rx="18" fill="#ecfdf3" stroke="#d0d5dd"/><text x="490" y="758" font-family="Inter,Arial" font-size="14" font-weight="800" fill="#667085">CAIXA</text><text x="490" y="804" font-family="Inter,Arial" font-size="30" font-weight="900" fill="#101828">R$ 4.280</text>
  <rect x="290" y="870" width="430" height="110" rx="22" fill="#fff" stroke="#e4e7ec"/><text x="318" y="910" font-family="Inter,Arial" font-size="22" font-weight="900" fill="#101828">Agenda por profissional</text><text x="318" y="948" font-family="Inter,Arial" font-size="18" fill="#667085">Marina, Bianca, Paula e Luciana</text>
  <rect x="690" y="660" width="210" height="410" rx="42" fill="#101828"/><rect x="702" y="672" width="186" height="386" rx="34" fill="#fff"/>
  <text x="730" y="725" font-family="Inter,Arial" font-size="15" fill="#667085">Hoje</text><text x="730" y="762" font-family="Inter,Arial" font-size="30" font-weight="900" fill="#101828">Camila</text>
  <rect x="730" y="810" width="130" height="54" rx="18" fill="#f8fafc" stroke="#e4e7ec"/><text x="748" y="844" font-family="Inter,Arial" font-size="14" font-weight="900" fill="#344054">09:00</text><text x="806" y="838" font-family="Inter,Arial" font-size="14" font-weight="900" fill="#101828">Marina</text>
  <rect x="730" y="884" width="130" height="54" rx="18" fill="#fff7ed" stroke="#e4e7ec"/><text x="748" y="918" font-family="Inter,Arial" font-size="14" font-weight="900" fill="#344054">10:30</text><text x="806" y="912" font-family="Inter,Arial" font-size="14" font-weight="900" fill="#101828">Bianca</text>
  <rect x="730" y="958" width="130" height="54" rx="18" fill="#f8fafc" stroke="#e4e7ec"/><text x="748" y="992" font-family="Inter,Arial" font-size="14" font-weight="900" fill="#344054">13:30</text><text x="806" y="986" font-family="Inter,Arial" font-size="14" font-weight="900" fill="#101828">Paula</text>
  <text x="72" y="1290" font-family="Inter,Arial" font-size="34" font-weight="900" fill="#101828">Print com rotina realista</text>
  <g font-family="Inter,Arial"><rect x="72" y="1350" width="350" height="92" rx="18" fill="#fff"/><text x="98" y="1384" font-size="13" font-weight="800" fill="#667085">AGENDAMENTOS HOJE</text><text x="98" y="1422" font-size="30" font-weight="900" fill="#101828">26</text><rect x="72" y="1468" width="350" height="92" rx="18" fill="#fff"/><text x="98" y="1502" font-size="13" font-weight="800" fill="#667085">CAIXA PREVISTO</text><text x="98" y="1540" font-size="30" font-weight="900" fill="#101828">R$ 4.280</text><rect x="72" y="1586" width="350" height="92" rx="18" fill="#fff"/><text x="98" y="1620" font-size="13" font-weight="800" fill="#667085">PROFISSIONAIS ATIVOS</text><text x="98" y="1658" font-size="30" font-weight="900" fill="#101828">8</text></g>
  <text x="510" y="1374" font-family="Inter,Arial" font-size="36" font-weight="900" fill="#101828"><tspan x="510" dy="0">Atelie Bella Studio:</tspan><tspan x="510" dy="44">coloracao, escova,</tspan><tspan x="510" dy="44">corte, comissoes e</tspan><tspan x="510" dy="44">pagamentos em</tspan><tspan x="510" dy="44">uma tela.</tspan></text>
  <rect x="510" y="1700" width="360" height="48" rx="24" fill="#101828"/><text x="690" y="1730" text-anchor="middle" font-family="Inter,Arial" font-size="16" font-weight="900" fill="#fff">Teste o SalaoPremium</text>
</svg>
