<svg xmlns="http://www.w3.org/2000/svg" xmlns:xlink="http://www.w3.org/1999/xlink" version="1.1" width="256" height="256" viewBox="0 0 256 256" xml:space="preserve">
<g style="stroke: none; stroke-width: 0; stroke-dasharray: none; stroke-linecap: butt; stroke-linejoin: miter; stroke-miterlimit: 10; fill: none; fill-rule: nonzero; opacity: 1;" transform="translate(1.4065934065934016 1.4065934065934016) scale(2.81 2.81)">
	<path d="M 45 90 h 44.779 l -2.134 -7.635 c -1.287 -4.603 -5.482 -7.786 -10.262 -7.786 h -9.848 c -4.709 0 -8.859 -3.091 -10.208 -7.602 l 0 0 c -1.114 -3.725 -0.129 -7.776 2.622 -10.523 c 5.134 -5.126 8.406 -12.831 8.406 -21.466 c 0 -8.415 -3.099 -15.962 -8.005 -21.092 C 56.245 9.603 50.876 7.002 45 7.002 c -5.876 0 -11.244 2.6 -15.349 6.892 c -4.906 5.13 -8.006 12.678 -8.006 21.094 c 0 8.635 3.272 16.34 8.406 21.466 c 2.751 2.747 3.736 6.798 2.622 10.523 l 0 0 c -1.349 4.511 -5.5 7.602 -10.208 7.602 h -9.848 c -4.78 0 -8.975 3.183 -10.262 7.786 L 0.221 90 H 45 z" style="stroke: none; stroke-width: 1; stroke-dasharray: none; stroke-linecap: butt; stroke-linejoin: miter; stroke-miterlimit: 10; fill: rgb(241,212,183); fill-rule: nonzero; opacity: 1;" transform=" matrix(1 0 0 1 0 0) " stroke-linecap="round"/>
	<path d="M 45.387 54.032 c -3.336 0 -6.799 -1.354 -10.368 -4.062 c -0.44 -0.334 -0.526 -0.961 -0.192 -1.401 c 0.334 -0.439 0.962 -0.525 1.401 -0.192 c 6.377 4.839 12.098 4.856 17.483 0.051 c 0.412 -0.366 1.045 -0.332 1.412 0.08 c 0.368 0.412 0.332 1.045 -0.08 1.412 C 51.97 52.661 48.743 54.032 45.387 54.032 z" style="stroke: none; stroke-width: 1; stroke-dasharray: none; stroke-linecap: butt; stroke-linejoin: miter; stroke-miterlimit: 10; fill: rgb(165,136,104); fill-rule: nonzero; opacity: 1;" transform=" matrix(1 0 0 1 0 0) " stroke-linecap="round"/>
	<path d="M 31.344 33.309 c -0.302 0 -0.601 -0.136 -0.797 -0.396 c -0.334 -0.44 -0.248 -1.067 0.192 -1.401 c 3.648 -2.77 7.234 -2.751 10.375 0.05 c 0.412 0.368 0.448 1 0.08 1.412 c -0.368 0.411 -1 0.448 -1.412 0.08 c -2.434 -2.172 -4.924 -2.158 -7.834 0.05 C 31.767 33.243 31.555 33.309 31.344 33.309 z" style="stroke: none; stroke-width: 1; stroke-dasharray: none; stroke-linecap: butt; stroke-linejoin: miter; stroke-miterlimit: 10; fill: rgb(165,136,104); fill-rule: nonzero; opacity: 1;" transform=" matrix(1 0 0 1 0 0) " stroke-linecap="round"/>
	<path d="M 49.553 33.309 c -0.303 0 -0.601 -0.136 -0.798 -0.396 c -0.334 -0.44 -0.248 -1.067 0.192 -1.401 c 3.646 -2.769 7.235 -2.752 10.375 0.05 c 0.412 0.368 0.448 1 0.08 1.412 c -0.367 0.412 -1.001 0.448 -1.412 0.08 c -2.434 -2.172 -4.924 -2.159 -7.834 0.05 C 49.976 33.243 49.763 33.309 49.553 33.309 z" style="stroke: none; stroke-width: 1; stroke-dasharray: none; stroke-linecap: butt; stroke-linejoin: miter; stroke-miterlimit: 10; fill: rgb(165,136,104); fill-rule: nonzero; opacity: 1;" transform=" matrix(1 0 0 1 0 0) " stroke-linecap="round"/>
	<path d="M 64.754 13.896 H 25.246 c -1.852 0 -3.353 -1.501 -3.353 -3.353 v -7.19 C 21.893 1.501 23.394 0 25.246 0 h 39.508 c 1.852 0 3.353 1.501 3.353 3.353 v 7.19 C 68.107 12.395 66.606 13.896 64.754 13.896 z" style="stroke: none; stroke-width: 1; stroke-dasharray: none; stroke-linecap: butt; stroke-linejoin: miter; stroke-miterlimit: 10; fill: rgb(229,146,191); fill-rule: nonzero; opacity: 1;" transform=" matrix(1 0 0 1 0 0) " stroke-linecap="round"/>
	<path d="M 17.426 13.896 c -5.085 0 -9.207 4.122 -9.207 9.207 c 0 5.085 4.122 9.207 9.207 9.207 s 9.207 -4.122 9.207 -9.207 C 26.632 18.018 22.511 13.896 17.426 13.896 z M 17.426 26.549 c -1.904 0 -3.447 -1.543 -3.447 -3.447 c 0 -1.904 1.543 -3.447 3.447 -3.447 s 3.447 1.543 3.447 3.447 C 20.873 25.006 19.329 26.549 17.426 26.549 z" style="stroke: none; stroke-width: 1; stroke-dasharray: none; stroke-linecap: butt; stroke-linejoin: miter; stroke-miterlimit: 10; fill: rgb(229,146,191); fill-rule: nonzero; opacity: 1;" transform=" matrix(1 0 0 1 0 0) " stroke-linecap="round"/>
	<path d="M 72.574 13.896 c -5.085 0 -9.207 4.122 -9.207 9.207 c 0 5.085 4.122 9.207 9.207 9.207 s 9.207 -4.122 9.207 -9.207 C 81.781 18.018 77.659 13.896 72.574 13.896 z M 72.574 26.549 c -1.904 0 -3.447 -1.543 -3.447 -3.447 c 0 -1.904 1.543 -3.447 3.447 -3.447 s 3.447 1.543 3.447 3.447 C 76.021 25.006 74.478 26.549 72.574 26.549 z" style="stroke: none; stroke-width: 1; stroke-dasharray: none; stroke-linecap: butt; stroke-linejoin: miter; stroke-miterlimit: 10; fill: rgb(229,146,191); fill-rule: nonzero; opacity: 1;" transform=" matrix(1 0 0 1 0 0) " stroke-linecap="round"/>
	<path d="M 71.425 33.55 c -5.085 0 -9.207 4.122 -9.207 9.207 s 4.122 9.207 9.207 9.207 s 9.207 -4.122 9.207 -9.207 S 76.51 33.55 71.425 33.55 z M 71.425 46.203 c -1.904 0 -3.447 -1.543 -3.447 -3.447 c 0 -1.904 1.543 -3.447 3.447 -3.447 c 1.904 0 3.447 1.543 3.447 3.447 C 74.872 44.66 73.329 46.203 71.425 46.203 z" style="stroke: none; stroke-width: 1; stroke-dasharray: none; stroke-linecap: butt; stroke-linejoin: miter; stroke-miterlimit: 10; fill: rgb(229,146,191); fill-rule: nonzero; opacity: 1;" transform=" matrix(1 0 0 1 0 0) " stroke-linecap="round"/>
	<path d="M 18.575 33.55 c -5.085 0 -9.207 4.122 -9.207 9.207 s 4.122 9.207 9.207 9.207 s 9.207 -4.122 9.207 -9.207 S 23.659 33.55 18.575 33.55 z M 18.575 46.203 c -1.904 0 -3.447 -1.543 -3.447 -3.447 c 0 -1.904 1.543 -3.447 3.447 -3.447 c 1.904 0 3.447 1.543 3.447 3.447 C 22.022 44.66 20.478 46.203 18.575 46.203 z" style="stroke: none; stroke-width: 1; stroke-dasharray: none; stroke-linecap: butt; stroke-linejoin: miter; stroke-miterlimit: 10; fill: rgb(229,146,191); fill-rule: nonzero; opacity: 1;" transform=" matrix(1 0 0 1 0 0) " stroke-linecap="round"/>
</g>
</svg>