<svg xmlns="http://www.w3.org/2000/svg" viewBox="0 0 256 256">
  <g transform="translate(1.4066 1.4066) scale(2.81)">
    <path d="M59.01 74.589h-9.106c-2.411-1.989-2.411-3.979 0-5.968h9.106v5.968z" fill="#AEADB3"/>
    <path d="M49.903 81.828c-3.739 1.123-7.071 1.274-9.807 0V55.415c3.269-1.538 6.538-1.538 9.807 0v26.413z" fill="#CFCDD2"/>
    <path d="M63.329 55.415H26.671c-2.966 0-5.37-2.404-5.37-5.37V43.04c15.8-8.698 31.599-8.698 47.399 0v7.005c0 2.966-2.405 5.37-5.371 5.37z" fill="#E592BF"/>
    <path d="M68.7 24.622h1.873c.966 0 1.749.783 1.749 1.749v3.883c0 .966-.783 1.749-1.749 1.749H68.7V43.04h-7.589l-3.12-11.35 3.12-7.068H68.7zM21.3 24.622h-1.891c-.956 0-1.731.775-1.731 1.731v3.919c0 .956.775 1.731 1.731 1.731H21.3V43.04h7.589l2.528-11.016-2.528-7.402H21.3z" fill="#CFCDD2"/>
    <path d="M61.111 43.04H28.889V7.823c0-3.762 3.05-6.812 6.812-6.812H54.3c3.762 0 6.812 3.05 6.812 6.812V43.04z" fill="#F2B3D8"/>
    <path d="M59.01 90H30.99v-.091c0-4.463 3.618-8.081 8.081-8.081h11.856c4.463 0 8.081 3.618 8.081 8.081V90z" fill="#AEADB3"/>
    <path d="M50.836 17.54H39.164V.856c0-.473.383-.856.856-.856h9.96c.473 0 .856.383.856.856V17.54z" fill="#F9F9F9"/>
  </g>
</svg>
