<svg xmlns="http://www.w3.org/2000/svg" viewBox="0 0 256 256">
  <g transform="translate(1.4066 1.4066) scale(2.81)">
    <path d="M46.142 48.249h-2.284c-4.319 0-7.82-3.501-7.82-7.82v-4.92c0-4.319 3.501-7.82 7.82-7.82h2.284c4.319 0 7.82 3.501 7.82 7.82v4.92c0 4.319-3.501 7.82-7.82 7.82z" fill="#DD4A78"/>
    <path d="M37.04 44.188c-6.466 5.901-12.967 13.777-18.565 22.103-1.034 1.538.139 3.598 1.989 3.489l5.323-.313c1.389-.082 2.742.466 3.682 1.492l2.72 2.967c1.358 1.482 3.793.556 3.878-1.452.358-8.392 2.122-16.636 4.983-24.764-1.721-.666-3.126-1.924-4.01-3.522z" fill="#F96989"/>
    <path d="M71.525 66.29c-5.598-8.326-12.1-16.202-18.565-22.103-.884 1.599-2.289 2.856-4.011 3.521 2.861 8.128 4.625 16.372 4.983 24.764.086 2.008 2.52 2.934 3.878 1.452l2.72-2.967c.941-1.026 2.293-1.574 3.682-1.492l5.323.313c1.851.11 3.024-1.95 1.99-3.488z" fill="#ED5A81"/>
    <path d="M86.224 21.335c-2.152-4.317-7.003-6.678-11.749-5.811-9.089 1.661-17.286 6.055-24.6 13.153 2.424 1.328 4.087 3.872 4.087 6.831v4.92c0 .769-.145 1.496-.352 2.198 7.258 3.322 13.036 7.952 18.142 11.504 4.268 2.969 10.217 2.024 13.123-2.287 6.546-9.705 6.628-19.918 1.349-30.508zM36.038 40.429v-4.92c0-2.959 1.663-5.503 4.087-6.831-7.314-7.099-15.511-11.492-24.6-13.153-4.745-.867-9.596 1.494-11.749 5.811-5.279 10.59-5.197 20.803 1.348 30.509 2.907 4.311 8.855 5.256 13.123 2.287 5.106-3.551 10.884-8.181 18.142-11.504-.206-.702-.351-1.43-.351-2.199z" fill="#F96989"/>
  </g>
</svg>
