<svg xmlns="http://www.w3.org/2000/svg" viewBox="0 0 256 256">
  <g transform="translate(1.4066 1.4066) scale(2.81)">
    <path d="M33.46 66.461c-4.903 0-8.893-3.989-8.893-8.893 0-4.904 3.989-8.894 8.893-8.894 4.904 0 8.893 3.989 8.893 8.894 0 4.904-3.989 8.893-8.893 8.893zm0-15.786c-3.801 0-6.893 3.093-6.893 6.894s3.092 6.893 6.893 6.893 6.893-3.092 6.893-6.893-3.092-6.894-6.893-6.894z" fill="#111"/>
    <path d="M58.707 72.682v3.324C58.707 82.619 53.326 88 46.713 88h-.258C39.841 88 34.46 82.619 34.46 76.006V74.68c8.997-.522 16.163-7.986 16.163-17.111V8.644C50.623 3.877 47.519 0 43.702 0h-1.543c-.552 0-1 .448-1 1v6.271h-4.345c-.552 0-1 .448-1 1v32.315c-.772-.107-1.553-.181-2.354-.181s-1.582.074-2.354.181V8.271c0-.552-.448-1-1-1h-4.344V1c0-.552-.448-1-1-1h-1.543c-3.816 0-6.92 3.877-6.92 8.644v48.925c0 9.125 7.165 16.589 16.162 17.111v1.326C32.46 83.723 38.738 90 46.455 90h.258c7.717 0 13.994-6.277 13.994-13.994v-3.324c0-6.613 5.381-11.994 11.994-11.994v-2c-7.717 0-13.994 6.277-13.994 13.994zM43.159 2h.543c2.714 0 4.921 2.98 4.921 6.644v40.905c-1.304-2.456-3.185-4.558-5.464-6.126V2zM37.814 9.271h3.345V42.25c-1.057-.534-2.177-.957-3.345-1.264V9.271zM29.106 9.271v31.715c-1.168.307-2.287.73-3.344 1.264V9.271h3.344zM18.298 8.644C18.298 4.98 20.506 2 23.219 2h.543v41.423c-2.279 1.568-4.16 3.67-5.464 6.126V8.644zm0 48.924c0-8.36 6.802-15.163 15.162-15.163 8.361 0 15.163 6.802 15.163 15.163S41.821 72.73 33.46 72.73c-8.36 0-15.162-6.801-15.162-15.162z" fill="#111"/>
  </g>
</svg>
