<svg xmlns="http://www.w3.org/2000/svg" viewBox="0 0 256 256">
  <g transform="translate(1.4066 1.4066) scale(2.81)">
    <path d="M57.193 29.019c3.878 2.607 6.38 6.717 6.38 11.34v45.968c0 2.029-1.872 3.674-4.181 3.674H35.279c-2.309 0-4.181-1.645-4.181-3.674V40.358c0-4.622 2.501-8.732 6.379-11.339" fill="#E592BF"/>
    <path d="M54.201 30.615H40.47c-2.16 0-3.927-1.767-3.927-3.927v-.178c0-2.16 1.767-3.927 3.927-3.927h13.731c2.16 0 3.927 1.767 3.927 3.927v.178c0 2.16-1.767 3.927-3.927 3.927z" fill="#F2B3D8"/>
    <polygon points="39.31,9.36 36.25,17.76 45.16,14.71 45.13,9.36" fill="#AEADB3"/>
    <path d="M31.098 7.831h-3.278c-.769 0-1.393-.623-1.393-1.393v-2.49c0-.769.623-1.393 1.393-1.393h3.278c2.194 1.759 2.194 3.518 0 5.276z" fill="#AEADB3"/>
    <path d="M55.849 0H32.423c-.732 0-1.325.593-1.325 1.325v7.737c0 .732.593 1.325 1.325 1.325h11.688v12.197h6.452V10.387h5.285c.732 0 1.325-.593 1.325-1.325V1.325C57.174.593 56.581 0 55.849 0z" fill="#CFCDD2"/>
  </g>
</svg>
