<svg xmlns="http://www.w3.org/2000/svg" width="1800" height="1200" viewBox="0 0 1800 1200" role="img" aria-label="Salao de beleza moderno com cadeiras e espelhos">
  <defs>
    <linearGradient id="wall" x1="0" x2="1" y1="0" y2="1">
      <stop stop-color="#f8fafc" offset="0"/>
      <stop stop-color="#e2e8f0" offset="0.52"/>
      <stop stop-color="#cbd5e1" offset="1"/>
    </linearGradient>
    <linearGradient id="floor" x1="0" x2="1" y1="0" y2="0">
      <stop stop-color="#a16207" offset="0"/>
      <stop stop-color="#d6a967" offset="0.48"/>
      <stop stop-color="#854d0e" offset="1"/>
    </linearGradient>
    <filter id="soft" x="-20%" y="-20%" width="140%" height="140%">
      <feGaussianBlur stdDeviation="18"/>
    </filter>
  </defs>
  <rect width="1800" height="1200" fill="url(#wall)"/>
  <rect y="760" width="1800" height="440" fill="url(#floor)"/>
  <path d="M0 760h1800" stroke="#f8fafc" stroke-width="10" opacity=".7"/>
  <ellipse cx="930" cy="780" rx="760" ry="95" fill="#0f172a" opacity=".12" filter="url(#soft)"/>
  <g opacity=".98">
    <rect x="140" y="150" width="350" height="520" rx="38" fill="#f8fafc" stroke="#94a3b8" stroke-width="12"/>
    <rect x="185" y="205" width="260" height="405" rx="28" fill="#e0f2fe"/>
    <rect x="260" y="640" width="110" height="170" rx="18" fill="#334155"/>
    <rect x="200" y="785" width="230" height="56" rx="22" fill="#1e293b"/>
  </g>
  <g opacity=".98">
    <rect x="725" y="120" width="350" height="550" rx="38" fill="#f8fafc" stroke="#94a3b8" stroke-width="12"/>
    <rect x="770" y="180" width="260" height="425" rx="28" fill="#dbeafe"/>
    <rect x="845" y="640" width="110" height="170" rx="18" fill="#334155"/>
    <rect x="785" y="785" width="230" height="56" rx="22" fill="#1e293b"/>
  </g>
  <g opacity=".98">
    <rect x="1310" y="150" width="350" height="520" rx="38" fill="#f8fafc" stroke="#94a3b8" stroke-width="12"/>
    <rect x="1355" y="205" width="260" height="405" rx="28" fill="#e0f2fe"/>
    <rect x="1430" y="640" width="110" height="170" rx="18" fill="#334155"/>
    <rect x="1370" y="785" width="230" height="56" rx="22" fill="#1e293b"/>
  </g>
  <g fill="#f8fafc" opacity=".85">
    <rect x="74" y="900" width="250" height="28" rx="14"/>
    <rect x="402" y="930" width="380" height="22" rx="11"/>
    <rect x="1008" y="905" width="290" height="24" rx="12"/>
    <rect x="1450" y="940" width="255" height="22" rx="11"/>
  </g>
  <g opacity=".7">
    <circle cx="530" cy="265" r="58" fill="#f59e0b"/>
    <circle cx="1180" cy="250" r="48" fill="#facc15"/>
    <rect x="500" y="330" width="115" height="16" rx="8" fill="#92400e"/>
    <rect x="1150" y="312" width="95" height="14" rx="7" fill="#92400e"/>
  </g>
</svg>
